C:\Users\Nicos\Documents\OpenSimProjects\SprintingProject\Study1\PredictiveResults\IC_pred_Sprinting_optimum_26-October-2023__10-52-28_p02_maxVel_01___Nominal_GRF.mot
version=1
nRows=4
nColumns=127
inDegrees=yes
endheader
time	ground_force_vx	ground_force_vy	ground_force_vz	ground_force_px	ground_force_py	ground_force_pz	ground_torque_x	ground_torque_y	ground_torque_z	1_ground_force_vx	1_ground_force_vy	1_ground_force_vz	1_ground_force_px	1_ground_force_py	1_ground_force_pz	1_ground_torque_x	1_ground_torque_y	1_ground_torque_z	2_ground_force_vx	2_ground_force_vy	2_ground_force_vz	2_ground_force_px	2_ground_force_py	2_ground_force_pz	2_ground_torque_x	2_ground_torque_y	2_ground_torque_z	3_ground_force_vx	3_ground_force_vy	3_ground_force_vz	3_ground_force_px	3_ground_force_py	3_ground_force_pz	3_ground_torque_x	3_ground_torque_y	3_ground_torque_z	4_ground_force_vx	4_ground_force_vy	4_ground_force_vz	4_ground_force_px	4_ground_force_py	4_ground_force_pz	4_ground_torque_x	4_ground_torque_y	4_ground_torque_z	5_ground_force_vx	5_ground_force_vy	5_ground_force_vz	5_ground_force_px	5_ground_force_py	5_ground_force_pz	5_ground_torque_x	5_ground_torque_y	5_ground_torque_z	6_ground_force_vx	6_ground_force_vy	6_ground_force_vz	6_ground_force_px	6_ground_force_py	6_ground_force_pz	6_ground_torque_x	6_ground_torque_y	6_ground_torque_z	7_ground_force_vx	7_ground_force_vy	7_ground_force_vz	7_ground_force_px	7_ground_force_py	7_ground_force_pz	7_ground_torque_x	7_ground_torque_y	7_ground_torque_z	8_ground_force_vx	8_ground_force_vy	8_ground_force_vz	8_ground_force_px	8_ground_force_py	8_ground_force_pz	8_ground_torque_x	8_ground_torque_y	8_ground_torque_z	9_ground_force_vx	9_ground_force_vy	9_ground_force_vz	9_ground_force_px	9_ground_force_py	9_ground_force_pz	9_ground_torque_x	9_ground_torque_y	9_ground_torque_z	10_ground_force_vx	10_ground_force_vy	10_ground_force_vz	10_ground_force_px	10_ground_force_py	10_ground_force_pz	10_ground_torque_x	10_ground_torque_y	10_ground_torque_z	11_ground_force_vx	11_ground_force_vy	11_ground_force_vz	11_ground_force_px	11_ground_force_py	11_ground_force_pz	11_ground_torque_x	11_ground_torque_y	11_ground_torque_z	12_ground_force_vx	12_ground_force_vy	12_ground_force_vz	12_ground_force_px	12_ground_force_py	12_ground_force_pz	12_ground_torque_x	12_ground_torque_y	12_ground_torque_z	13_ground_force_vx	13_ground_force_vy	13_ground_force_vz	13_ground_force_px	13_ground_force_py	13_ground_force_pz	13_ground_torque_x	13_ground_torque_y	13_ground_torque_z
0.160214	-0.000000	0.000000	0.000000	0.518570	0.079263	0.408764	0.000000	0.000000	0.000000	-0.000000	0.000000	0.000000	0.527831	0.101430	0.429157	0.000000	0.000000	0.000000	-0.000000	0.000000	0.000000	0.537269	0.113374	0.425617	0.000000	0.000000	0.000000	-0.000000	0.000000	0.000000	0.535353	0.111343	0.403338	0.000000	0.000000	0.000000	-0.000000	0.000000	0.000000	0.550141	0.156420	0.454720	0.000000	0.000000	0.000000	-0.000000	0.000000	0.000000	0.540673	0.128009	0.419988	0.000000	0.000000	0.000000	-0.000000	0.000000	0.000000	0.554291	0.186549	0.397475	0.000000	0.000000	0.000000	-0.000000	0.000000	-0.000000	1.566735	0.111399	0.117754	0.000000	0.000000	0.000000	-0.000000	0.000000	-0.000000	1.531763	0.125704	0.097120	0.000000	0.000000	0.000000	-0.000000	0.000000	-0.000000	1.498926	0.130408	0.105144	0.000000	0.000000	0.000000	-0.000000	0.000000	-0.000000	1.496906	0.124735	0.124731	0.000000	0.000000	0.000000	-0.000000	0.000000	-0.000000	1.432080	0.159067	0.079240	0.000000	0.000000	0.000000	-0.000000	0.000000	-0.000000	1.472358	0.136943	0.109974	0.000000	0.000000	0.000000	-0.000000	0.000000	-0.000000	1.366087	0.163082	0.129295	0.000000	0.000000	0.000000
0.160860	-0.000000	0.000000	0.000000	0.523498	0.081307	0.408430	0.000000	0.000000	0.000000	-0.000000	0.000000	0.000000	0.533064	0.103411	0.428957	0.000000	0.000000	0.000000	-0.000000	0.000000	0.000000	0.542662	0.115352	0.425439	0.000000	0.000000	0.000000	-0.000000	0.000000	0.000000	0.540741	0.113360	0.403147	0.000000	0.000000	0.000000	-0.000000	0.000000	0.000000	0.556220	0.158302	0.454801	0.000000	0.000000	0.000000	-0.000000	0.000000	0.000000	0.546320	0.129980	0.419897	0.000000	0.000000	0.000000	-0.000000	0.000000	0.000000	0.560951	0.188491	0.397729	0.000000	0.000000	0.000000	-0.000000	0.000000	-0.000000	1.580714	0.110772	0.118405	0.000000	0.000000	0.000000	-0.000000	0.000000	-0.000000	1.545502	0.124916	0.097736	0.000000	0.000000	0.000000	-0.000000	0.000000	-0.000000	1.512592	0.129492	0.105755	0.000000	0.000000	0.000000	-0.000000	0.000000	-0.000000	1.510670	0.123827	0.125361	0.000000	0.000000	0.000000	-0.000000	0.000000	-0.000000	1.445272	0.157856	0.079780	0.000000	0.000000	0.000000	-0.000000	0.000000	-0.000000	1.485920	0.135922	0.110572	0.000000	0.000000	0.000000	-0.000000	0.000000	-0.000000	1.379229	0.161641	0.129842	0.000000	0.000000	0.000000
0.162903	-0.000000	0.000000	0.000000	0.539572	0.087739	0.407523	0.000000	0.000000	0.000000	-0.000000	0.000000	0.000000	0.550063	0.109647	0.428437	0.000000	0.000000	0.000000	-0.000000	0.000000	0.000000	0.560146	0.121575	0.424974	0.000000	0.000000	0.000000	-0.000000	0.000000	0.000000	0.558204	0.119698	0.402644	0.000000	0.000000	0.000000	-0.000000	0.000000	0.000000	0.575778	0.164219	0.455079	0.000000	0.000000	0.000000	-0.000000	0.000000	0.000000	0.564566	0.136173	0.419682	0.000000	0.000000	0.000000	-0.000000	0.000000	0.000000	0.582249	0.194567	0.398517	0.000000	0.000000	0.000000	-0.000000	0.000000	-0.000000	1.624694	0.108905	0.120461	0.000000	0.000000	0.000000	-0.000000	0.000000	-0.000000	1.588751	0.122539	0.099683	0.000000	0.000000	0.000000	-0.000000	0.000000	-0.000000	1.555624	0.126712	0.107686	0.000000	0.000000	0.000000	-0.000000	0.000000	-0.000000	1.554010	0.121074	0.127351	0.000000	0.000000	0.000000	-0.000000	0.000000	-0.000000	1.486848	0.154136	0.081489	0.000000	0.000000	0.000000	-0.000000	0.000000	-0.000000	1.528634	0.132810	0.112464	0.000000	0.000000	0.000000	-0.000000	0.000000	-0.000000	1.420675	0.157200	0.131575	0.000000	0.000000	0.000000
0.164383	-0.000000	0.000000	0.000000	0.551696	0.092365	0.407056	0.000000	0.000000	0.000000	-0.000000	0.000000	0.000000	0.562830	0.114137	0.428203	0.000000	0.000000	0.000000	-0.000000	0.000000	0.000000	0.573245	0.126052	0.424763	0.000000	0.000000	0.000000	-0.000000	0.000000	0.000000	0.571276	0.124248	0.402411	0.000000	0.000000	0.000000	-0.000000	0.000000	0.000000	0.590303	0.168479	0.455319	0.000000	0.000000	0.000000	-0.000000	0.000000	0.000000	0.578180	0.140622	0.419624	0.000000	0.000000	0.000000	-0.000000	0.000000	0.000000	0.597921	0.198906	0.399071	0.000000	0.000000	0.000000	-0.000000	0.000000	-0.000000	1.656351	0.107665	0.121952	0.000000	0.000000	0.000000	-0.000000	0.000000	-0.000000	1.619899	0.120926	0.101094	0.000000	0.000000	0.000000	-0.000000	0.000000	-0.000000	1.586628	0.124808	0.109088	0.000000	0.000000	0.000000	-0.000000	0.000000	-0.000000	1.585233	0.119194	0.128797	0.000000	0.000000	0.000000	-0.000000	0.000000	-0.000000	1.516837	0.151544	0.082726	0.000000	0.000000	0.000000	-0.000000	0.000000	-0.000000	1.559420	0.130665	0.113837	0.000000	0.000000	0.000000	-0.000000	0.000000	-0.000000	1.450592	0.154093	0.132833	0.000000	0.000000	0.000000
